<svg version="1.0" xmlns="http://www.w3.org/2000/svg" viewBox="0 0 240 160">
  <g fill="#666" fill-rule="evenodd">
    <path
      d="M10 33.68C10 17.7 22.96 4.74 38.95 4.74h110c15.99 0 28.95 12.96 28.95 28.95v14.25l43.96-19.54c1.79-.8 3.86-.63 5.51.44a5.788 5.788 0 012.63 4.85v92.63c0 1.96-.99 3.79-2.63 4.85a5.808 5.808 0 01-5.51.44l-43.96-19.54v14.25c0 15.99-12.96 28.95-28.95 28.95h-110C22.96 155.26 10 142.3 10 126.32V33.68zm28.95-17.36c-9.59 0-17.37 7.78-17.37 17.37v92.63c0 9.59 7.78 17.37 17.37 17.37h110c9.59 0 17.37-7.78 17.37-17.37v-14.25c0-8.38 8.63-13.98 16.28-10.58l35.82 15.92V42.59L182.6 58.51c-7.66 3.4-16.28-2.2-16.28-10.58V33.68c0-9.59-7.78-17.37-17.37-17.37h-110z" />
    <path d="M81.12 110.69V43.31h11.23v67.38H81.12z" />
    <path d="M120.42 82.62H53.04V71.38h67.38v11.24z" />
  </g>
</svg>